PathFileType	4	(X/Y/Z)	regression/subject04/trials/walk2/markers.trc
DataRate	CameraRate	NumFrames	NumMarkers	Units	OrigDataRate	OrigDataStartFrame	OrigNumFrames
199.9999999999954	199.9999999999954	4	64	m	199.9999999999954	111	223
Frame#	Time	CLAV			C7			RACR			RASH			RPSH			RLEL			RMEL			RUA1			RUA2			RUA3			RFAsuperior			RFAradius			RFAulna			RASI			RPSI			RCAL			RTOE			RMT5			RTH1			RTH2			RTH3			RTB1			RTB2			RTB3			RLFC			RMFC			RLMAL			RMMAL			RHJC			RKJC			REJC			RAJC			RSJC			LACR			LASH			LPSH			LLEL			LMEL			LUA1			LUA2			LUA3			LFAsuperior			LFAradius			LFAulna			LASI			LPSI			LCAL			LTOE			LMT5			LTH1			LTH2			LTH3			LTB1			LTB2			LTB3			LLFC			LMFC			LLMAL			LMMAL			LHJC			LKJC			LEJC			LAJC			LSJC			
		X1	Y1	Z1	X2	Y2	Z2	X3	Y3	Z3	X4	Y4	Z4	X5	Y5	Z5	X6	Y6	Z6	X7	Y7	Z7	X8	Y8	Z8	X9	Y9	Z9	X10	Y10	Z10	X11	Y11	Z11	X12	Y12	Z12	X13	Y13	Z13	X14	Y14	Z14	X15	Y15	Z15	X16	Y16	Z16	X17	Y17	Z17	X18	Y18	Z18	X19	Y19	Z19	X20	Y20	Z20	X21	Y21	Z21	X22	Y22	Z22	X23	Y23	Z23	X24	Y24	Z24	X25	Y25	Z25	X26	Y26	Z26	X27	Y27	Z27	X28	Y28	Z28	X29	Y29	Z29	X30	Y30	Z30	X31	Y31	Z31	X32	Y32	Z32	X33	Y33	Z33	X34	Y34	Z34	X35	Y35	Z35	X36	Y36	Z36	X37	Y37	Z37	X38	Y38	Z38	X39	Y39	Z39	X40	Y40	Z40	X41	Y41	Z41	X42	Y42	Z42	X43	Y43	Z43	X44	Y44	Z44	X45	Y45	Z45	X46	Y46	Z46	X47	Y47	Z47	X48	Y48	Z48	X49	Y49	Z49	X50	Y50	Z50	X51	Y51	Z51	X52	Y52	Z52	X53	Y53	Z53	X54	Y54	Z54	X55	Y55	Z55	X56	Y56	Z56	X57	Y57	Z57	X58	Y58	Z58	X59	Y59	Z59	X60	Y60	Z60	X61	Y61	Z61	X62	Y62	Z62	X63	Y63	Z63	X64	Y64	Z64	

112	1.965	1.942392746649026	1.423741514040948	-0.4752578624049251	1.83566095578505	1.51281604647056	-0.4653477183340341	1.926642726853596	1.480082586944152	-0.3235588496591716	1.967711275785541	1.412358009952429	-0.2811920227655685	1.870075603800559	1.44000935220562	-0.2721800957991521	1.89509982878881	1.147700538387286	-0.1560592694139702	1.847584075928863	1.126853588491462	-0.2332291476248989	1.918584847539468	1.379625820948099	-0.2419150534846204	1.886832149325866	1.228984800340491	-0.1950908152606349	1.937664508779627	1.288342748193015	-0.2277193942151536	1.943361224352263	1.085118076602131	-0.23423169279565	2.083092687690913	0.9918394735173383	-0.2939923668855428	2.056319352111581	0.9412872431332494	-0.2660151796582595	1.892039457491813	0.9705364455430839	-0.3278752908519782	1.731827443824698	1.018271005621492	-0.4226633059778301	1.422555903004642	0.08699914843149736	-0.3674497318642962	1.678884449413764	0.03878388168296576	-0.4000801904104014	1.606263552746451	0.01354920489055057	-0.3044118770999534	1.789770732594345	0.7316574170362476	-0.310756827860727	1.836910613616113	0.6269557103647728	-0.378251006884538	1.735769229641867	0.580412916461162	-0.3112692521683441	1.619660268717839	0.3167847189724456	-0.323867080995328	1.623123165255782	0.2229316184432221	-0.3822437898427273	1.567350891631919	0.1704030369478265	-0.3145255379832109	1.69323840316642	0.4767915176487426	-0.3202591716862666	1.693361942761038	0.4734127769026867	-0.4390842806791874	1.50526150080397	0.08426590468562867	-0.3144787446478403	1.513264025949185	0.07826873485169422	-0.4152409653922161	1.814088311827316	0.8892779345005185	-0.3913230556226922	1.694252337031066	0.4734558803727332	-0.3816870402544192	1.873701453916037	1.130848789361313	-0.2016586509848707	1.492535524592917	0.07519500557504777	-0.3725132936512584	1.921973845244176	1.425311281230936	-0.2769703855781507	1.899233396183782	1.480379357569689	-0.6214235055475905	1.931868304909631	1.412746094616592	-0.6707073420042703	1.826421779165851	1.442609544250038	-0.6609744608805406	1.736824409674871	1.173558802139753	-0.7473692694305055	1.727952606175065	1.15850182027161	-0.6560341260246009	1.855266347060391	1.385198184291146	-0.6935884378456438	1.768623249144337	1.250968438426662	-0.7127928417017314	1.841845309681737	1.293483975476635	-0.711096414426421	1.74954279770525	1.070861345899685	-0.7054356811689826	1.77599611337343	0.8962054011795879	-0.7297798975658848	1.713502933495994	0.8923526050774997	-0.7413911391447257	1.910466277055725	0.9865775969958263	-0.5919099621981122	1.738282223999502	1.023890103698567	-0.5151527209935235	2.069475643199663	0.04658788583733642	-0.5646562853897542	2.308750470782836	0.1545579164793528	-0.5510985626834886	2.257103265646954	0.09038805090363959	-0.642081002037989	1.902388954285771	0.7595706304543836	-0.6310125174384621	2.008421307139015	0.7101716765164724	-0.5673182204958823	1.956591638619293	0.6084071014667002	-0.6292861429034893	2.048764004886007	0.3362978305178677	-0.6152561154504365	2.121805672485844	0.2741456710823473	-0.5602083167753616	2.114811358149613	0.1956308243523633	-0.6253394032390122	1.98987584812993	0.5015561819057343	-0.6191803756543486	1.99788672446953	0.5020439245754601	-0.5005784125778473	2.132052246574017	0.09087206659609148	-0.6235916512379042	2.149234677716811	0.09522004332985767	-0.5238976657503085	1.825170452189657	0.898925301554626	-0.5501171046029693	1.994630617427335	0.5013993559197494	-0.5581243394347706	1.73609104392098	1.158671115829395	-0.6963889353488801	2.133728481556943	0.07714865411674132	-0.5651014918482051	1.886130874368266	1.425699365895099	-0.6664857048168524	
113	1.97	1.94907353821961	1.423078163933662	-0.4764046268274094	1.842160531417075	1.511960089813553	-0.4667210999691901	1.933102967652047	1.479642259655644	-0.3248117047024702	1.974273076142373	1.412069239135318	-0.2823016926374237	1.876576971184982	1.439544478336343	-0.273406845420587	1.901443136869184	1.147117140902284	-0.1577546077464176	1.854198409415192	1.126357480975424	-0.2351141866000755	1.925036940884447	1.37919629380756	-0.2431636099293074	1.893243228355171	1.228457211802235	-0.1966840529327067	1.944138386023176	1.287905050003236	-0.2290500283492941	1.94981672934943	1.08427580638528	-0.2356809145194013	2.089445446511827	0.990401135741139	-0.2947443157330661	2.06239570963201	0.9399960852129624	-0.2667674482174806	1.898980080847452	0.9698891140422068	-0.3280222419347155	1.739108268606349	1.017265079672358	-0.4235615892844113	1.423845967511794	0.09024779172214012	-0.3670725676415513	1.679378836429225	0.03815673386382153	-0.3999854385403741	1.606460065299517	0.01391062942946864	-0.3042880563716858	1.796697767600366	0.7310324429062114	-0.3109033764263197	1.843817558394322	0.6261111726363067	-0.3780698288058196	1.742450207232341	0.5798754793676433	-0.3112170991097938	1.62418116516474	0.3171492248428078	-0.3236591246308891	1.626308289534391	0.2232374843355204	-0.3820054750226918	1.569793211012109	0.1715300379962582	-0.314271097438669	1.699770196236088	0.4763047700957951	-0.3200832700844536	1.700154696287951	0.4726740007339994	-0.4389003873352587	1.506483926658238	0.08628551158431086	-0.314197417312745	1.514401308525476	0.08014247903174321	-0.414957577095675	1.82145378329578	0.8884419792144005	-0.3917480844001784	1.700996525926193	0.4727239864864067	-0.3815285556727467	1.880208288712448	1.130321977296363	-0.2034512071307202	1.493630711664754	0.07737794066031778	-0.3722292241413633	1.928507335775083	1.424940014939038	-0.2781349014586965	1.90590984389615	1.479386572453197	-0.6226962147941307	1.938712837384662	1.411734878947504	-0.6718429750649798	1.833201044030679	1.44140813728461	-0.6622365400707961	1.744562960559342	1.171876418132657	-0.7484197057348569	1.735591225003015	1.156928794105596	-0.6570763615966717	1.86225351036819	1.383967125478897	-0.6947674476455594	1.776063016408715	1.249437332214404	-0.7139088607082589	1.849148506106544	1.292185050091457	-0.7121587985885017	1.757224580758343	1.06923848916443	-0.7063343711353151	1.783673602822157	0.8945481283906007	-0.7304350950345354	1.721202313247703	0.8907011924220667	-0.7421654642767522	1.918553179152574	0.9857438697016454	-0.5919856758374994	1.745964581843757	1.022818884665778	-0.5160260503445159	2.071408865949781	0.04486852931670027	-0.5640238568608857	2.312379402695544	0.148751210566777	-0.5486820371015338	2.260300554968362	0.08552441818456161	-0.6400777484982595	1.910846110814329	0.7587110946168174	-0.6311617969918105	2.016687319842899	0.7093751925005622	-0.5671017689047885	1.965162608051863	0.6075901550272473	-0.6292900065614937	2.055382399297002	0.3347023356056386	-0.6147486306219516	2.127077711715601	0.271484663392873	-0.5591469726931284	2.119454165524188	0.193091309669252	-0.6243537487937226	1.998495248030082	0.5007623685664386	-0.619099653406075	2.006077839110393	0.501216820750858	-0.5004694065718006	2.135155416248444	0.08809255528440985	-0.6225010478780234	2.151615511323565	0.09217262025890077	-0.5226739477299319	1.833225311311828	0.8979772452986592	-0.5504992902113713	2.003208707084003	0.5005637314571709	-0.5579958301137157	1.743794129495116	1.157063055988611	-0.6974182479825264	2.13617232221027	0.07433592939276668	-0.5640035119848685	1.892947097017372	1.424605654751224	-0.6676761838862526	
114	1.975	1.955775239163248	1.42246041675015	-0.4775703361227966	1.84866777127206	1.511133478673526	-0.4681238089745581	1.939558452348102	1.479241935385769	-0.3260848745949595	1.980834553787862	1.411826077010104	-0.2834283680511398	1.883073538187693	1.439110727073293	-0.2746609454103156	1.907672347645667	1.146554263877036	-0.1595427550802869	1.860757277850428	1.125899683878839	-0.2371307486366491	1.93145657458054	1.378799791386299	-0.2444451929491308	1.899575967151239	1.227957497591735	-0.1983616873149484	1.950562250811001	1.287496578009439	-0.2304150129937466	1.95618699538911	1.083418338173363	-0.2371782229065938	2.095703139729022	0.9888628672751092	-0.2954158928430127	2.068330900401659	0.9386270837133242	-0.2674482496791875	1.905935787553219	0.9693256080575234	-0.3281378943129717	1.746446055216704	1.016306285395713	-0.4245074257880251	1.425274725853681	0.09372919882327499	-0.3667195455502488	1.679900844794197	0.03752556733193138	-0.3998929360500182	1.606669010887352	0.01435235486541989	-0.3041687988438229	1.80374093125677	0.7304559523239224	-0.3110076076793702	1.850894258586269	0.6253388878038448	-0.3778435742931868	1.749324380923907	0.5793594602913689	-0.3111216222929798	1.628900358608498	0.317562045829141	-0.3234303446993623	1.629643426045071	0.2236205939610592	-0.3817629062660948	1.572377091131935	0.1727598764745299	-0.3140184281414947	1.706548123890338	0.4758178844657234	-0.3198633644080278	1.707196716837668	0.4719330698728125	-0.4386712985749317	1.507820964319799	0.08845567277556576	-0.3139293941232488	1.515642542027187	0.08218203670271357	-0.4146889891832126	1.82885623472326	0.8876647597759216	-0.3921315969338162	1.707992809551366	0.4719817386225856	-0.3813261117286651	1.886635245565707	1.129825655641607	-0.2053550841485805	1.494835485074531	0.07972955856448538	-0.3719593244934868	1.935038406029963	1.424607571332205	-0.2793212689150457	1.912616500649741	1.47843555973242	-0.6239912251568206	1.945602770797698	1.41077158577111	-0.6729982110935735	1.840020873949515	1.440239007839354	-0.6635293946414833	1.752431339351229	1.170204123948499	-0.7495401509648577	1.743347426421115	1.155355068733517	-0.6581918170643729	1.869300532195378	1.38277159268181	-0.6959793308134814	1.783604491352578	1.247920990279364	-0.7150833574667543	1.856540271102481	1.290920754522555	-0.7132636836514539	1.765058416662176	1.067625905508543	-0.7073096502283632	1.791559631021088	0.8929114444460491	-0.7311772127564958	1.729114018590062	0.889052661173503	-0.7430396652756674	1.926754159351037	0.9848759003062688	-0.5920241533313189	1.753738578654413	1.021753439082299	-0.5169448530503369	2.07261947321457	0.04320194346126775	-0.5636125493255568	2.31547800362181	0.1422610302185517	-0.5462685585499779	2.262869463875753	0.08017788610805854	-0.6381436611642968	1.919425504421568	0.7578733233157793	-0.6312971343646648	2.025056047416609	0.7085764559732305	-0.5668604427864345	1.973857649790343	0.6067952911393713	-0.6293239140877133	2.061857116117971	0.3330546279015804	-0.6143367544035383	2.132032416065352	0.2686476679102913	-0.5581637444324613	2.123691525817702	0.1904223815737792	-0.6234844466749339	2.007237462360003	0.4999871951074661	-0.6190817033732492	2.01435646031877	0.5003605761101213	-0.5004224511721254	2.137662258902898	0.08518058107406373	-0.6215655297935389	2.153329484221248	0.08894067616759244	-0.521598378589922	1.841376687185424	0.8970169174164908	-0.5508363887179542	2.011909585318612	0.4997158906750531	-0.5579253653381946	1.751621936944418	1.155460339372809	-0.698519163359675	2.137952739709202	0.07137933325127099	-0.5630703869296755	1.899806623039798	1.423553080093211	-0.6688911119574794	
115	1.98	1.96250423518644	1.421888635266041	-0.4787500095101616	1.855188689374661	1.51033544153497	-0.4695470452030641	1.946014710925205	1.478874544246559	-0.3273707775964702	1.9874013795858	1.411619685602909	-0.2845675101146913	1.889570917010331	1.438698258441508	-0.2759368968511732	1.913799547984365	1.146003630648728	-0.1614168426821039	1.867270402998812	1.125471408742733	-0.2392692589799458	1.937851014325635	1.378427279372302	-0.245754692642093	1.905840571201691	1.227477054236142	-0.2001167557786258	1.956944278941163	1.28710846286635	-0.2318094215791934	1.962481233034422	1.082540995928601	-0.2387202504600516	2.101872877811226	0.9872279502930615	-0.2960134481887889	2.074136040261762	0.9371822333522688	-0.2680642700499466	1.91291097154251	0.9688404172481163	-0.3282371342745261	1.753846478949784	1.015404240463077	-0.4255075970290247	1.426853413259019	0.09744654136902006	-0.3663841265652608	1.680448149856632	0.03689452768038801	-0.3998048639151957	1.606894615007629	0.01487970523377251	-0.3040539640702922	1.810896914902894	0.7299278691537558	-0.3110737526473969	1.858137075024741	0.624639905527517	-0.3775785791780045	1.756391718732602	0.5788633150613685	-0.3109846386149151	1.633821526990383	0.3180224862432421	-0.3231791153965756	1.633131786104482	0.2240827815366949	-0.3815151454671253	1.575109075221727	0.1740941810373506	-0.3137651280801495	1.713574032022993	0.4753282184865198	-0.3195993717820144	1.714485029356353	0.4711877758097994	-0.4383969496047099	1.509281352034421	0.09077910339327389	-0.313670817453561	1.516993943170903	0.08439133727126552	-0.4144316430058914	1.836285536548131	0.8869473114294357	-0.3924789237339965	1.715240269189005	0.4712266305206519	-0.3810795105032067	1.892992982026169	1.129351248792299	-0.2073620326764177	1.496157545427689	0.08225320220435317	-0.371699390314649	1.941572699392321	1.42430464304915	-0.2805244993313962	1.919360069208774	1.477533446560559	-0.625301045008264	1.95254530964893	1.409865942475062	-0.6741686290378063	1.846888410067423	1.439110801140749	-0.6648475667132068	1.760427730830969	1.168556347344915	-0.7507219005228088	1.751221813082052	1.153794799449856	-0.6593715978225113	1.876412734643174	1.381621949792389	-0.6972183828870874	1.791248966002923	1.246432582858381	-0.7163083749712766	1.864022884771787	1.289702130098752	-0.7144052370028913	1.773040795652924	1.066037397865914	-0.7083536711488259	1.799644901194945	0.8913084953477907	-0.732000023954494	1.737228369345705	0.8874220418422956	-0.7440056281068246	1.93505972296471	0.9839516956541512	-0.5920405761918079	1.761605024643512	1.020697610810191	-0.5179160140663089	2.073431116152764	0.0415771558546327	-0.5634430817794084	2.318161994181926	0.1354994276598069	-0.5439703656153855	2.265014607365159	0.07466446570572696	-0.6363688093027272	1.928079679431739	0.7570310202986706	-0.6314218738421158	2.033474679485176	0.7077330651107763	-0.5666014639175205	1.982602902458729	0.6059866440321091	-0.6293875673265882	2.068209050242106	0.3313675356442257	-0.6140362539068795	2.136761787803492	0.2657176715455192	-0.5573013106717247	2.127661554890179	0.1877003219922489	-0.6227691573111911	2.016010468656732	0.499189332607892	-0.6191234093606059	2.022637192013693	0.4994377679506165	-0.5004353202544501	2.139803243484535	0.082232281051968	-0.620827010134924	2.154638558980022	0.08564142135038227	-0.5207204531037771	1.849606097443629	0.8960354401631685	-0.5511339081851205	2.020631796514615	0.4988174927208787	-0.5579123377813993	1.759573806277844	1.15387713912823	-0.6996830217041329	2.139333514776123	0.06838072767684267	-0.5623449241318982	1.906716629455451	1.422550899921303	-0.6701256182545112	
